<?xml version="1.0" encoding="utf-8"?>
<svg version="1.1" id="logo-rocket-plume" xmlns="http://www.w3.org/2000/svg" xmlns:xlink="http://www.w3.org/1999/xlink" x="0px" y="0px" width="1000px" height="1000px" viewBox="0 0 1000 1000" style="enable-background:new 0 0 1000 1000;" xml:space="preserve">

	<path fill="#3D7EE8" d="M442.1376343,239.0324707C330.0235901,364.1452332,256.5446472,743.4553833,256.5446472,743.4553833
        l486.9107361-486.9107361C670.9694214,184.0586853,555.1060791,112.9662628,442.1376343,239.0324707z" />
	<path fill="#3871D3" d="M760.9675293,557.8623657C635.8547974,669.9764404,256.5446472,743.4553833,256.5446472,743.4553833
        l486.9107361-486.9107361C815.9413452,329.0305786,887.0337524,444.8939514,760.9675293,557.8623657z" />
	<path fill="#E6D722" d="M729.1928711,270.8071289c-68.2432861-68.2433167-156.0289307-81.6737671-217.7286987-6.1382751
        c-59.5775146,72.9373169-136.4866943,272.9732971-92.7964783,316.6634827
        C460.1914062,539.8085938,729.1928711,270.8071289,729.1928711,270.8071289z" />
	<path fill="#D3C322" d="M729.1928711,270.8071289c68.2432861,68.2433167,81.6737671,156.0289001,6.1382446,217.7286987
        c-72.9372559,59.5775146-272.9732361,136.4866943-316.6634216,92.7965088
        C460.1914062,539.8085938,729.1928711,270.8071289,729.1928711,270.8071289z" />
	<path fill="#DA2E2E" d="M709.6044922,290.3954773c-38.6350708-38.6350861-112.5914307-75.0758362-166.7267456-6.4090576
        c-49.9011536,63.2960815-93.6089172,195.071167-57.7721252,230.9079285
        C522.2061768,477.7938232,709.6044922,290.3954773,709.6044922,290.3954773z" />
	<path fill="#CC2424" d="M709.6044922,290.3954773c38.6351318,38.6351013,75.0758667,112.5914612,6.4091187,166.7267456
        c-63.2961426,49.9011841-195.071167,93.6089172-230.9079895,57.7721252
        C522.2061768,477.7938232,709.6044922,290.3954773,709.6044922,290.3954773z" />

</svg>
